# xmcd
#
# Track frame offsets: 
#        150
#        12576
#        25459
#        36196
#        52597
#        67240
#        82244
#        91987
#        107597
#        118260
#        136938
#        148832
#        158251
#        176811
#
# Disc length: 2588 seconds
#
# Revision: 0
# Processed by: cddbd v1.5.2PL0 Copyright (c) Steve Scherf et al.
# Submitted via: ExactAudioCopy v0.99pb3
#
DISCID=c10a1a0e
DTITLE=Ray Campi and The Rhythm Rockers - Rockabilly Blues
DYEAR=2006
DGENRE=Blues
TTITLE0=Cryin' Blues
TTITLE1=Don't Lie To Me
TTITLE2=Sugar Cane Mama
TTITLE3=Got Love If You Want It
TTITLE4=Bucket Got A Hole In It
TTITLE5=Sugaree
TTITLE6=Step It Up and Go
TTITLE7=Pretty Thing
TTITLE8=Lonesome Whistle
TTITLE9=Mona
TTITLE10=Act Like You Love Me
TTITLE11=Stack-A-Lee
TTITLE12=Mystery Train
TTITLE13=Kissing At Midnight
EXTD=
EXTT0=
EXTT1=
EXTT2=
EXTT3=
EXTT4=
EXTT5=
EXTT6=
EXTT7=
EXTT8=
EXTT9=
EXTT10=
EXTT11=
EXTT12=
EXTT13=
PLAYORDER=
